<?xml version="1.0" ?><svg data-name="Layer 1" id="Layer_1" viewBox="0 0 512 512" xmlns="http://www.w3.org/2000/svg"><defs><style>.cls-1{fill:#e6e6e6;}.cls-2{fill:#fff;}.cls-3{fill:#4d4d4d;}.cls-4{fill:#29b6f6;}.cls-5{fill:#414042;}</style></defs><title/><g data-name="The Industrial Internet of Things" id="The_Industrial_Internet_of_Things"><path class="cls-1" d="M506,256A250.17,250.17,0,0,1,343.11,490.38c-5.1,1.93-10.31,3.67-15.57,5.21a250.94,250.94,0,0,1-143.1,0q-7.89-2.3-15.55-5.21A249.79,249.79,0,0,1,6,256a247,247,0,0,1,3.49-41.67A250,250,0,0,1,506,256Z"/><path class="cls-2" d="M392.72,345.75a26.07,26.07,0,0,1-26-26v-18.2a17.67,17.67,0,0,0-5.81-13.34c-13.64-12-19.53-29.5-15.75-46.85a48.68,48.68,0,0,1,43-37.73h0a47.54,47.54,0,0,1,36.71,12.33,48.41,48.41,0,0,1,15.65,35.65A47.83,47.83,0,0,1,424.62,287a18,18,0,0,0-5.86,13.37v19.39A26.07,26.07,0,0,1,392.72,345.75ZM392.54,208.6q-2,0-4,.18h0a43.43,43.43,0,0,0-38.36,33.65c-3.36,15.48,1.91,31.12,14.1,41.84a22.87,22.87,0,0,1,7.58,17.25v18.2a20.83,20.83,0,1,0,41.67,0V300.32a23.23,23.23,0,0,1,7.57-17.23,42.62,42.62,0,0,0,14.13-31.52,43.19,43.19,0,0,0-14-31.8A42.22,42.22,0,0,0,392.54,208.6Z"/><rect class="cls-2" height="5.21" transform="translate(-62.73 98.71) rotate(-13.24)" width="45.48" x="371.28" y="317.11"/><path class="cls-2" d="M387.08,295c-6.43,0-11.28-7.28-11.28-16.93s4.85-16.93,11.28-16.93,11.28,7.28,11.28,16.93S393.51,295,387.08,295Zm0-31.25c-3.55,0-7.52,6.13-7.52,14.32s4,14.32,7.52,14.32,7.52-6.13,7.52-14.32S390.63,263.72,387.08,263.72Z"/><path class="cls-2" d="M398.36,295c-6.43,0-11.28-7.28-11.28-16.93s4.85-16.93,11.28-16.93,11.28,7.28,11.28,16.93S404.8,295,398.36,295Zm0-31.25c-3.55,0-7.52,6.13-7.52,14.32s4,14.32,7.52,14.32,7.52-6.13,7.52-14.32S401.91,263.72,398.36,263.72Z"/><path class="cls-2" d="M392.72,197.32a5.21,5.21,0,0,1-5.21-5.21V176.48a5.21,5.21,0,1,1,10.42,0v15.63A5.21,5.21,0,0,1,392.72,197.32Z"/><path class="cls-2" d="M330.22,254.61H314.59a5.21,5.21,0,0,1,0-10.42h15.63A5.21,5.21,0,0,1,330.22,254.61Z"/><path class="cls-2" d="M470.84,254.61H455.22a5.21,5.21,0,0,1,0-10.42h15.63A5.21,5.21,0,0,1,470.84,254.61Z"/><path class="cls-2" d="M442.2,212.94a5.21,5.21,0,0,1-3.68-8.89l10.42-10.42A5.21,5.21,0,1,1,456.3,201l-10.42,10.42A5.19,5.19,0,0,1,442.2,212.94Z"/><path class="cls-2" d="M343.24,212.94a5.19,5.19,0,0,1-3.68-1.53L329.14,201a5.21,5.21,0,1,1,7.37-7.37l10.42,10.42A5.21,5.21,0,0,1,343.24,212.94Z"/><rect class="cls-2" height="5.21" transform="translate(-58.41 95.28) rotate(-12.86)" width="46.75" x="370" y="304.09"/><rect class="cls-3" height="5.21" width="500" x="6" y="490.38"/><rect class="cls-4" height="10.42" width="500" x="6" y="495.58"/><rect class="cls-2" height="244.79" rx="8" ry="8" width="195.31" x="26.35" y="247.45"/><path class="cls-3" d="M200.82,494.84H47.18a23.46,23.46,0,0,1-23.44-23.44V268.28a23.46,23.46,0,0,1,23.44-23.44H200.82a23.46,23.46,0,0,1,23.44,23.44V471.41A23.46,23.46,0,0,1,200.82,494.84ZM47.18,250.05a18.25,18.25,0,0,0-18.23,18.23V471.41a18.25,18.25,0,0,0,18.23,18.23H200.82a18.25,18.25,0,0,0,18.23-18.23V268.28a18.25,18.25,0,0,0-18.23-18.23H47.18Z"/><path class="cls-2" d="M464.33,338.59v138H256v-138c0-4.31,2.2-7.81,6.49-7.81H458.16C462.45,330.78,464.33,334.28,464.33,338.59Z"/><path class="cls-3" d="M466.94,479.22H253.4V338.59c0-6.23,3.65-10.42,9.09-10.42H458.16c5.33,0,8.78,4.09,8.78,10.42V479.22ZM258.6,474H461.73V338.59c0-2.38-.62-5.21-3.57-5.21H262.49c-3.51,0-3.89,3.64-3.89,5.21V474Z"/><rect class="cls-2" height="98.96" width="177.08" x="271.63" y="346.41"/><path class="cls-3" d="M451.31,448H269V343.8H451.31V448Zm-177.08-5.21H446.1V349H274.23v93.75Z"/><rect class="cls-4" height="5.21" width="171.88" x="274.23" y="349.01"/><path class="cls-4" d="M461.73,455.78v23.44H258.6V455.78H342.4c1.65,0,3.16,1.56,3.78,3.15l2,4.91A3.85,3.85,0,0,0,352,466.2h19c1.65,0,3.16-.52,3.78-2.1l2-5.43a4.34,4.34,0,0,1,3.78-2.89h81.15Z"/><path class="cls-2" d="M485.89,463.59h-102A3.94,3.94,0,0,0,380,466l-2.07,5.31A4.29,4.29,0,0,1,374,474H346.35a4.42,4.42,0,0,1-3.87-2.88l-2.07-5a4.05,4.05,0,0,0-3.87-2.49H234.76c-2.82,0-5.06,1.46-4.58,4.26,2.5,14.47,15,24.39,30.07,24.39H460.4c15.05,0,27.56-9.92,30.07-24.39C491,465,488.71,463.59,485.89,463.59Z"/><path class="cls-3" d="M460.4,494.84H260.25c-16.51,0-29.93-10.92-32.63-26.55a5.9,5.9,0,0,1,1.22-4.9,7.53,7.53,0,0,1,5.92-2.4H336.54a6.68,6.68,0,0,1,6.29,4.13l2.06,5a1.9,1.9,0,0,0,1.46,1.26H374a1.7,1.7,0,0,0,1.45-1.11l2.06-5.29a6.55,6.55,0,0,1,6.29-4h102a7.53,7.53,0,0,1,5.92,2.41,5.9,5.9,0,0,1,1.22,4.9C490.33,483.93,476.91,494.84,460.4,494.84ZM234.76,466.2a2.75,2.75,0,0,0-1.94.55,0.74,0.74,0,0,0-.07.66c2.27,13.09,13.58,22.23,27.5,22.23H460.4c13.93,0,25.23-9.14,27.5-22.23a0.73,0.73,0,0,0-.07-0.66,2.74,2.74,0,0,0-1.94-.55h-102a1.48,1.48,0,0,0-1.45.72l-2.06,5.29a6.9,6.9,0,0,1-6.29,4.41H346.35a7,7,0,0,1-6.29-4.52l-2.06-5a1.52,1.52,0,0,0-1.46-.87H234.76Z"/><path class="cls-2" d="M493,481.11a11.13,11.13,0,0,1-11.13,11.13H441.61a11.13,11.13,0,0,1-11.13-11.13V383.58a11.13,11.13,0,0,1,11.13-11.13h40.23A11.13,11.13,0,0,1,493,383.58v97.52Z"/><path class="cls-3" d="M481.85,494.84H441.61a13.75,13.75,0,0,1-13.74-13.74V383.58a13.75,13.75,0,0,1,13.74-13.74h40.23a13.75,13.75,0,0,1,13.74,13.74v97.52A13.75,13.75,0,0,1,481.85,494.84ZM441.61,375.05a8.54,8.54,0,0,0-8.53,8.53v97.52a8.54,8.54,0,0,0,8.53,8.53h40.23a8.54,8.54,0,0,0,8.53-8.53V383.58a8.54,8.54,0,0,0-8.53-8.53H441.61Z"/><path class="cls-4" d="M464,390.68H450.73a2.61,2.61,0,0,1,0-5.21H464A2.61,2.61,0,0,1,464,390.68Z"/><circle class="cls-4" cx="473.48" cy="388.08" r="2.6"/><circle class="cls-2" cx="462.16" cy="477.01" r="6.51"/><path class="cls-5" d="M462.16,484.83A7.81,7.81,0,1,1,470,477,7.82,7.82,0,0,1,462.16,484.83Zm0-13a5.21,5.21,0,1,0,5.21,5.21A5.21,5.21,0,0,0,462.16,471.8Z"/><rect class="cls-3" height="5.21" width="62.5" x="430.48" y="398.49"/><rect class="cls-3" height="5.21" width="62.5" x="430.48" y="458.38"/><rect class="cls-4" height="5.21" width="57.29" x="433.08" y="403.7"/><path class="cls-4" d="M124,323c-44.51,0-80.73,35.63-80.73,79.43S79.49,481.82,124,481.82s80.73-35.63,80.73-79.43S168.52,323,124,323Z"/><rect class="cls-3" height="5.21" width="192.71" x="26.83" y="289.11"/><rect class="cls-4" height="5.21" width="192.71" x="26.83" y="294.32"/><path class="cls-3" d="M54.18,276.74a9.11,9.11,0,1,1,9.11-9.11A9.13,9.13,0,0,1,54.18,276.74Zm0-13a3.91,3.91,0,1,0,3.91,3.91A3.91,3.91,0,0,0,54.18,263.72Z"/><rect class="cls-2" height="15.63" width="52.08" x="73.38" y="259.82"/><path class="cls-3" d="M128.07,278H70.78V257.21h57.29V278ZM76,272.84h46.88V262.42H76v10.42Z"/><path class="cls-3" d="M181.13,272.84H170.71V262.42h10.42v10.42Zm-18.23,0H152.48V262.42H162.9v10.42Zm-18.23,0H134.26V262.42h10.42v10.42Z"/><circle class="cls-2" cx="124" cy="395.88" r="78.12"/><path class="cls-3" d="M124,476.61a80.73,80.73,0,1,1,80.73-80.73A80.82,80.82,0,0,1,124,476.61Zm0-156.25a75.52,75.52,0,1,0,75.52,75.52A75.61,75.61,0,0,0,124,320.36Z"/><path class="cls-2" d="M37.25,388.07h0a7.81,7.81,0,0,1,7.81-7.81H60.69a7.81,7.81,0,0,1,7.81,7.81h0a7.81,7.81,0,0,1-7.81,7.81H45.06A7.81,7.81,0,0,1,37.25,388.07Z"/><path class="cls-3" d="M60.69,398.49H45.06a10.42,10.42,0,0,1,0-20.83H60.69A10.42,10.42,0,1,1,60.69,398.49ZM45.06,382.86a5.21,5.21,0,0,0,0,10.42H60.69a5.21,5.21,0,1,0,0-10.42H45.06Z"/><circle class="cls-2" cx="124" cy="395.88" r="65.1"/><path class="cls-3" d="M124,463.59a67.71,67.71,0,1,1,67.71-67.71A67.79,67.79,0,0,1,124,463.59Zm0-130.21a62.5,62.5,0,1,0,62.5,62.5A62.57,62.57,0,0,0,124,333.38Z"/><path class="cls-4" d="M186.5,395.23s-8.63-49.48-62.5-49.48c-55.5,0-62.5,49.48-62.5,49.48A62.5,62.5,0,1,1,186.5,395.23Z"/><path class="cls-2" d="M239.24,114a32.28,32.28,0,0,0-31.69-26.09c-1,0-1.9.06-2.83,0.14a45.17,45.17,0,0,0-85.59,12.86c-0.66-.05-1.33-0.1-2-0.1-14.27,0-25.84,12.2-25.84,26.44s11.57,26.44,25.84,26.44H236c10.7,0,19.38-9.31,19.38-20C255.35,124.13,248.38,115.56,239.24,114Z"/><polygon class="cls-2" points="146.95 195.69 55.8 195.69 55.8 190.48 141.74 190.48 141.74 148.81 146.95 148.81 146.95 195.69"/><circle class="cls-4" cx="52.88" cy="192.76" r="5.21"/><polygon class="cls-2" points="165.02 213.92 73.87 213.92 73.87 208.71 159.81 208.71 159.81 151.42 165.02 151.42 165.02 213.92"/><circle class="cls-4" cx="73.55" cy="210.99" r="5.21"/><polygon class="cls-2" points="270.49 213.92 179.34 213.92 179.34 151.42 184.55 151.42 184.55 208.71 270.49 208.71 270.49 213.92"/><circle class="cls-4" cx="272.76" cy="210.99" r="5.21"/><polygon class="cls-2" points="290.18 195.69 199.03 195.69 199.03 148.81 204.24 148.81 204.24 190.48 290.18 190.48 290.18 195.69"/><circle class="cls-4" cx="292.46" cy="192.76" r="5.21"/><path class="cls-4" d="M284.65,123.75H274.23c0-13-9.93-23.65-22.14-23.65V89.68C270,89.68,284.65,105,284.65,123.75Z"/><path class="cls-4" d="M315,123.75H304.61c0-30.63-23.56-55.56-52.52-55.56V57.78C286.8,57.78,315,87.37,315,123.75Z"/><path class="cls-4" d="M348.45,123.75H338a86,86,0,0,0-85.94-85.94V27.4A96.46,96.46,0,0,1,348.45,123.75Z"/></g></svg>